<svg width="100" height="100" viewBox="0 0 100 100" xmlns="http://www.w3.org/2000/svg">
  <!-- Simplified frog logo with colorful stripes -->
  <defs>
    <clipPath id="frogShape">
      <ellipse cx="50" cy="45" rx="35" ry="30"/>
      <ellipse cx="30" cy="25" rx="8" ry="10"/>
      <ellipse cx="70" cy="25" rx="8" ry="10"/>
      <path d="M 20 60 Q 25 75, 35 75 L 35 85 L 30 85 L 30 75" fill="black"/>
      <path d="M 80 60 Q 75 75, 65 75 L 65 85 L 70 85 L 70 75" fill="black"/>
    </clipPath>
  </defs>
  
  <!-- Colorful horizontal stripes -->
  <g clip-path="url(#frogShape)">
    <rect x="0" y="0" width="100" height="14" fill="#FF8C42"/>
    <rect x="0" y="14" width="100" height="14" fill="#D4A574"/>
    <rect x="0" y="28" width="100" height="14" fill="#E91E63"/>
    <rect x="0" y="42" width="100" height="14" fill="#00BCD4"/>
    <rect x="0" y="56" width="100" height="14" fill="#8BC34A"/>
    <rect x="0" y="70" width="100" height="14" fill="#FFC107"/>
    <rect x="0" y="84" width="100" height="16" fill="#E91E63"/>
  </g>
  
  <!-- Frog outline -->
  <ellipse cx="50" cy="45" rx="35" ry="30" fill="none" stroke="#333" stroke-width="1" opacity="0.3"/>
  <ellipse cx="30" cy="25" rx="8" ry="10" fill="none" stroke="#333" stroke-width="1" opacity="0.3"/>
  <ellipse cx="70" cy="25" rx="8" ry="10" fill="none" stroke="#333" stroke-width="1" opacity="0.3"/>
</svg>